<?xml version="1.0" standalone="no"?><!DOCTYPE svg PUBLIC "-//W3C//DTD SVG 1.1//EN" "http://www.w3.org/Graphics/SVG/1.1/DTD/svg11.dtd"><svg t="1741684749301" class="icon" viewBox="0 0 1024 1024" version="1.1" xmlns="http://www.w3.org/2000/svg" p-id="7806" xmlns:xlink="http://www.w3.org/1999/xlink" width="64" height="64"><path d="M806.4512 132.7104l-49.0496-35.1232A450.7648 450.7648 0 0 0 512 24.6272a450.7648 450.7648 0 0 0-245.4016 72.96l-49.0496 32.4608c-100.864 83.7632-163.6352 208.0768-163.6352 345.9072v310.784c0 10.8544 0 72.8576 2.7648 83.6608h910.6432c0-10.8032 2.7648-72.8064 2.7648-83.6096V478.6688c0-137.8304-65.4336-262.144-163.6352-345.9584z" fill="#216CFF" p-id="7807"></path><path d="M93.9008 0C145.408 0 187.904 42.0352 187.904 93.0816c0 18.0224-6.0928 33.024-15.1552 48.0768L239.36 222.208A500.8384 500.8384 0 0 1 512 141.1584c99.9936 0 193.8944 30.0032 272.64 81.0496l66.6624-78.08c-9.0624-15.0016-15.1552-30.0032-15.1552-48.0256 0-51.0464 42.4448-93.0816 93.952-93.0816S1024 45.0048 1024 96.1024c0 51.0464-42.3936 93.0816-93.9008 93.0816-9.1136 0-18.176-3.0208-27.2896-5.9904l-63.5904 78.08c109.056 93.0816 181.76 231.2192 181.76 384.3584v342.3232c0 12.032-3.072 24.064-3.072 36.0448H6.0928c-3.0208-12.032-3.0208-24.064-3.0208-36.0448v-345.344c0-153.088 69.6832-291.2768 181.76-384.3584L121.1904 180.1728c-9.1136 3.0208-18.176 5.9904-27.2896 5.9904C42.3936 186.1632 0 144.1792 0 93.0816 0 42.0352 42.3936 0 93.9008 0zM808.96 552.5504H212.0704c-69.632 0-124.2112 54.0672-124.2112 123.0848 0 69.12 57.5488 123.136 124.2112 123.136h596.8384a124.2112 124.2112 0 0 0 124.2112-123.136c0-66.048-54.528-120.1152-124.2112-123.0848z m-533.1968 33.024c27.2384 0 51.5072 24.064 51.5072 51.0464v81.1008c0 26.9824-24.2688 51.0464-51.5072 51.0464-27.2896 0-51.5072-24.064-51.5072-51.0464v-81.1008c0-27.0336 24.2176-51.0464 51.5072-51.0464z m472.576 0c30.3104 0 51.5072 20.992 51.5072 51.0464v81.1008c0 26.9824-24.2176 51.0464-51.5072 51.0464-27.2384 0-51.5072-24.064-51.5072-51.0464v-81.1008c0-27.0336 24.2688-51.0464 51.5072-51.0464z" fill="#E2EFFF" fill-opacity=".6" p-id="7808"></path></svg>