<?xml version="1.0" standalone="no"?><!DOCTYPE svg PUBLIC "-//W3C//DTD SVG 1.1//EN" "http://www.w3.org/Graphics/SVG/1.1/DTD/svg11.dtd"><svg t="1732000128908" class="icon" viewBox="0 0 1024 1024" version="1.1" xmlns="http://www.w3.org/2000/svg" p-id="2833" xmlns:xlink="http://www.w3.org/1999/xlink" width="128" height="128"><path d="M920.725333 207.813333l-93.866666-93.866666-115.52 115.509333-16.549334-16.549333-31.386666 31.386666-46.666667-90.848-40.72 21.162667-18.154667-35.626667 25.845334-13.173333-19.370667-38.016-89.706667 45.706667 19.370667 38.021333 25.845333-13.173333 18.309334 35.930666-41.264 21.44 65.909333 129.173334-349.744 349.749333 10.933333 10.928-35.536 35.536a51.024 51.024 0 0 0-15.013333 36.330667c0 13.749333 5.333333 26.650667 15.008 36.330666l1.141333 1.136-92.677333 92.677334 30.176 30.176 92.672-92.677334 1.136 1.141334a51.226667 51.226667 0 0 0 36.336 15.018666 51.216 51.216 0 0 0 36.325333-15.018666l35.541334-35.541334 10.933333 10.933334 481.728-481.733334-16.549333-16.549333 115.514666-115.52z m-366.581333 26.24l44.224-22.981333 33.312 64.842667-37.2 37.194666-40.336-79.056z m-214.117333 527.216l-66.629334-66.629333 421.386667-421.392 66.634667 66.629333-421.386667 421.386667z m402.528-502.688l84.298666-84.298666 33.530667 33.530666-84.298667 84.298667-33.530666-33.530667z" p-id="2834"></path></svg>