<?xml version="1.0" standalone="no"?><!DOCTYPE svg PUBLIC "-//W3C//DTD SVG 1.1//EN" "http://www.w3.org/Graphics/SVG/1.1/DTD/svg11.dtd"><svg t="1732011773266" class="icon" viewBox="0 0 1024 1024" version="1.1" xmlns="http://www.w3.org/2000/svg" p-id="8218" xmlns:xlink="http://www.w3.org/1999/xlink" width="128" height="128"><path d="M963.2 0c25.6 0 51.2 16 51.2 41.6v256c0 35.2-25.6 51.2-60.8 51.2-25.6 0-51.2-16-51.2-41.6V112h-800v809.6h291.2c35.2 0 60.8 25.6 60.8 51.2s-16 51.2-51.2 51.2h-352C25.6 1024 0 1008 0 982.4V67.2C0 41.6 9.6 9.6 41.6 0h921.6z m-54.4 448c6.4 0 12.8 3.2 16 6.4 3.2 3.2 3.2 9.6 6.4 22.4 3.2 12.8 0 25.6-3.2 44.8-3.2 19.2-9.6 38.4-19.2 64-9.6 22.4-25.6 48-44.8 76.8l-19.2 25.6c-6.4 9.6-12.8 16-19.2 25.6 9.6 12.8 19.2 28.8 25.6 41.6s16 22.4 22.4 35.2c9.6 9.6 19.2 19.2 28.8 25.6 9.6 6.4 19.2 12.8 28.8 16 9.6 3.2 16 9.6 25.6 12.8 6.4 3.2 16 9.6 19.2 12.8 12.8 9.6 22.4 19.2 32 35.2s16 19.2 16 35.2c0 12.8-3.2 25.6-6.4 38.4-6.4 12.8-12.8 22.4-19.2 28.8-9.6 9.6-19.2 16-28.8 19.2-12.8 6.4-22.4 6.4-35.2 6.4-16 0-32-3.2-44.8-12.8-12.8-9.6-25.6-19.2-32-32 0-3.2-3.2-3.2-3.2-6.4s-3.2-3.2-3.2-6.4c-6.4-9.6-9.6-19.2-12.8-32 0-12.8-3.2-25.6-3.2-41.6v-41.6c0-12.8 0-25.6-3.2-35.2-3.2-9.6-9.6-16-16-25.6l-19.2-28.8c0-3.2-3.2-3.2-3.2-3.2l-3.2-3.2c-6.4 9.6-16 19.2-22.4 28.8-6.4 9.6-12.8 19.2-22.4 28.8-3.2 3.2-3.2 6.4-6.4 6.4 0 3.2-3.2 6.4-6.4 6.4-3.2 6.4-6.4 12.8-6.4 19.2s0 12.8 3.2 16c0 6.4 3.2 9.6 3.2 16 3.2 6.4 3.2 12.8 3.2 19.2 0 6.4 0 16-3.2 25.6-3.2 9.6-6.4 22.4-12.8 35.2-6.4 19.2-19.2 32-35.2 44.8-16 12.8-35.2 16-54.4 16-12.8 0-25.6-3.2-35.2-6.4-12.8-6.4-22.4-12.8-28.8-19.2-9.6-9.6-16-19.2-19.2-28.8 0-6.4-3.2-19.2-3.2-32 0-16 3.2-28.8 9.6-41.6 6.4-12.8 12.8-22.4 25.6-32 9.6-9.6 19.2-19.2 32-25.6 9.6-6.4 22.4-12.8 32-19.2 9.6-6.4 19.2-12.8 32-19.2 9.6-6.4 19.2-12.8 25.6-22.4 0-3.2 3.2-3.2 3.2-6.4s3.2-3.2 3.2-6.4 3.2-6.4 6.4-9.6c6.4-6.4 9.6-16 16-22.4 6.4-6.4 12.8-16 16-22.4l-25.6-25.6c-6.4-6.4-12.8-16-22.4-25.6-12.8-19.2-25.6-38.4-35.2-57.6s-16-38.4-22.4-57.6-6.4-35.2-6.4-48c0-12.8 3.2-25.6 6.4-32 3.2-3.2 6.4-3.2 12.8-3.2s9.6 0 12.8 6.4c6.4 9.6 16 22.4 25.6 38.4 9.6 12.8 19.2 28.8 28.8 44.8 9.6 16 22.4 32 32 51.2 12.8 19.2 22.4 35.2 35.2 51.2l3.2-6.4 3.2-6.4c3.2-3.2 3.2-6.4 6.4-9.6 9.6-16 22.4-32 32-48l28.8-48c9.6-16 16-28.8 22.4-41.6 6.4-12.8 12.8-22.4 16-28.8 0-3.2 3.2-6.4 9.6-6.4z m-272 428.8c-12.8 0-22.4 3.2-32 12.8-9.6 9.6-12.8 19.2-12.8 32s3.2 25.6 12.8 32c9.6 9.6 19.2 12.8 32 12.8s22.4-3.2 32-12.8c9.6-9.6 12.8-19.2 12.8-32s-3.2-25.6-12.8-32-19.2-12.8-32-12.8z m294.4 0c-12.8 0-22.4 3.2-32 12.8-9.6 9.6-12.8 19.2-12.8 32 0 6.4 0 12.8 3.2 19.2 3.2 6.4 6.4 9.6 9.6 16s9.6 6.4 16 9.6 12.8 3.2 19.2 3.2c12.8 0 22.4-3.2 32-12.8 9.6-9.6 12.8-19.2 12.8-32s-3.2-25.6-12.8-32c-12.8-9.6-22.4-16-35.2-16zM377.6 470.4c35.2 0 60.8 25.6 60.8 60.8s-25.6 60.8-60.8 60.8H265.6c-35.2 0-60.8-25.6-60.8-60.8s25.6-60.8 60.8-60.8h112zM649.6 256c35.2 0 60.8 25.6 60.8 60.8s-25.6 51.2-60.8 51.2h-384c-25.6 0-51.2-25.6-51.2-51.2S240 256 265.6 256h384z" fill="#2c2c2c" p-id="8219"></path></svg>