<?xml version="1.0" standalone="no"?><!DOCTYPE svg PUBLIC "-//W3C//DTD SVG 1.1//EN" "http://www.w3.org/Graphics/SVG/1.1/DTD/svg11.dtd"><svg t="1732454962145" class="icon" viewBox="0 0 1024 1024" version="1.1" xmlns="http://www.w3.org/2000/svg" p-id="24250" xmlns:xlink="http://www.w3.org/1999/xlink" width="128" height="128"><path d="M102 169l130 0 0 130L102 299z" fill="#ffffff" p-id="24251"></path><path d="M269 168.995C269 148.563 252.437 132 232.006 132H101.994C81.563 132 65 148.563 65 168.995v130.011C65 319.437 81.563 336 101.994 336h130.012C252.437 336 269 319.437 269 299.005v-130.01zM232 299H102V169h130v130z" fill="" p-id="24252"></path><path d="M923 207.901c0-8.229-6.671-14.901-14.901-14.901L391.901 193c-8.229 0-14.901 6.671-14.901 14.901L377 258.1c0 8.229 6.671 14.901 14.901 14.901L908.1 273.001c8.229 0 14.901-6.671 14.901-14.901l0-50.199z" fill="#ffffff" p-id="24253"></path><path d="M960 208.152C960 179.349 936.651 156 907.848 156H392.152C363.349 156 340 179.349 340 208.152v50.696C340 287.651 363.349 311 392.152 311h515.696C936.651 311 960 287.651 960 258.848v-50.696z m-37 49.947c0 8.229-6.671 14.901-14.901 14.901H391.901c-8.229 0-14.901-6.671-14.901-14.901V207.9c0-8.229 6.671-14.901 14.901-14.901H908.1c8.229 0 14.901 6.671 14.901 14.901v50.199z" fill="" p-id="24254"></path><path d="M102 447l130 0 0 129L102 576z" fill="#ffffff" p-id="24255"></path><path d="M269 446.995C269 426.563 252.437 410 232.006 410H101.994C81.563 410 65 426.563 65 446.995v130.011C65 597.437 81.563 614 101.994 614h130.012C252.437 614 269 597.437 269 577.005v-130.01zM232 576H102V447h130v129z" fill="" p-id="24256"></path><path d="M923 485.901c0-8.229-6.671-14.901-14.901-14.901L391.901 471.00000001c-8.229 0-14.901 6.671-14.901 14.90099999L377 536.1c0 8.229 6.671 14.901 14.901 14.901L908.1 551.001c8.229 0 14.901-6.671 14.901-14.901l0-50.199z" fill="#ffffff" p-id="24257"></path><path d="M960 486.152C960 457.349 936.651 434 907.848 434H392.152C363.349 434 340 457.349 340 486.152v50.696C340 565.651 363.349 589 392.152 589h515.696C936.651 589 960 565.651 960 536.848v-50.696z m-37 49.947c0 8.229-6.671 14.901-14.901 14.901H391.901c-8.229 0-14.901-6.671-14.901-14.901V485.9c0-8.229 6.671-14.901 14.901-14.901H908.1c8.229 0 14.901 6.671 14.901 14.901v50.199z" fill="" p-id="24258"></path><path d="M178.84624875 670.65952395l91.92388156 91.92388155-91.92388156 91.92388155L86.9223672 762.5834055z" fill="#ffffff" p-id="24259"></path><path d="M296.93661674 788.74282087C311.3842225 774.29521512 311.3842225 750.87159588 296.93732385 736.42469724L205.00495702 644.4923304C190.55805837 630.04543175 167.13443914 630.04543175 152.68683338 644.49303751l-91.93165973 91.93165973C46.30827501 750.87159588 46.30827501 774.29521512 60.75517365 788.74211376l91.93236684 91.93236684C167.13443914 895.12137924 190.55805837 895.12137924 205.00566412 880.67377349l91.93095262-91.93095262zM178.84624875 854.50728705L86.9223672 762.5834055 178.84624875 670.65952395l91.92388156 91.92388155-91.92388156 91.92388155z" fill="" p-id="24260"></path><path d="M923 763.901c0-8.229-6.671-14.901-14.901-14.901L391.90100001 749c-8.229 0-14.901 6.671-14.90100001 14.901L377 814.10000001c0 8.229 6.671 14.901 14.901 14.90099999L908.1 829.001c8.229 0 14.901-6.671 14.901-14.901l0-50.199z" fill="#ffffff" p-id="24261"></path><path d="M960 763.152C960 734.349 936.651 711 907.848 711H392.152C363.349 711 340 734.349 340 763.152v50.696C340 842.651 363.349 866 392.152 866h515.696C936.651 866 960 842.651 960 813.848v-50.696z m-37 50.947c0 8.229-6.671 14.901-14.901 14.901H391.901c-8.229 0-14.901-6.671-14.901-14.901V763.9c0-8.229 6.671-14.901 14.901-14.901H908.1c8.229 0 14.901 6.671 14.901 14.901v50.199z" fill="" p-id="24262"></path></svg>