<?xml version="1.0" standalone="no"?><!DOCTYPE svg PUBLIC "-//W3C//DTD SVG 1.1//EN" "http://www.w3.org/Graphics/SVG/1.1/DTD/svg11.dtd"><svg t="1732011848483" class="icon" viewBox="0 0 1024 1024" version="1.1" xmlns="http://www.w3.org/2000/svg" p-id="11404" xmlns:xlink="http://www.w3.org/1999/xlink" width="128" height="128"><path d="M597.996 264.189h-171.85a46.169 46.169 0 0 1-46.17-46.17V46.17A46.169 46.169 0 0 1 426.146 0h171.85a46.169 46.169 0 0 1 46.169 46.169v171.85a46.169 46.169 0 0 1-46.17 46.17zM451.795 192.37h120.552V71.818H451.795z m146.2 831.63h-171.85a46.169 46.169 0 0 1-46.169-46.169v-171.85a46.169 46.169 0 0 1 46.17-46.17h171.85a46.169 46.169 0 0 1 46.169 46.17v171.85a46.169 46.169 0 0 1-46.17 46.169z m-146.2-71.818h120.552V831.63H451.795z" p-id="11405"></path><path d="M465.902 222.932h92.337v582.766h-92.337zM845.5 472.077h51.298a41.039 41.039 0 0 1 41.04 41.039v301.252H845.5V472.077z" p-id="11406"></path><path d="M937.042 510.794v51.3H88.048v-51.3a41.039 41.039 0 0 1 41.039-41.039h766.916a41.039 41.039 0 0 1 41.04 41.04z" p-id="11407"></path><path d="M127.202 472.077H178.5v342.29H86.163V513.117a41.039 41.039 0 0 1 41.039-41.04zM977.594 1024h-171.85a46.169 46.169 0 0 1-46.17-46.169v-171.85a46.169 46.169 0 0 1 46.17-46.17h171.85a46.169 46.169 0 0 1 46.169 46.17v171.85a46.169 46.169 0 0 1-46.17 46.169z m-146.202-71.818h120.552V831.63H831.392z" p-id="11408"></path><path d="M218.257 1024H46.407a46.169 46.169 0 0 1-46.17-46.169v-171.85a46.169 46.169 0 0 1 46.17-46.17h171.85a46.169 46.169 0 0 1 46.169 46.17v171.85a46.169 46.169 0 0 1-46.17 46.169zM72.056 952.182h120.552V831.63H72.056z" p-id="11409"></path></svg>