<?xml version="1.0" standalone="no"?><!DOCTYPE svg PUBLIC "-//W3C//DTD SVG 1.1//EN" "http://www.w3.org/Graphics/SVG/1.1/DTD/svg11.dtd"><svg t="1732454771494" class="icon" viewBox="0 0 1024 1024" version="1.1" xmlns="http://www.w3.org/2000/svg" p-id="10469" xmlns:xlink="http://www.w3.org/1999/xlink" width="128" height="128"><path d="M233.792 190.592c0 24.96 16.192 40.32 40.32 40.32h476.928c23.872 0 39.168-15.872 39.168-40.32V114.56c0-32.448-23.552-55.296-55.296-55.296H289.088c-32.832 0-55.296 23.36-55.296 55.296v76.032z m640.512 353.28a242.176 242.176 0 0 0-239.744 420.864h-401.92c-51.968 0-80.64-41.152-82.944-91.008V442.88c0-25.344 4.608-43.392 13.824-54.144 24.512-28.608 52.608-54.08 80.64-79.424 8.832-8.064 17.728-16.128 26.496-24.256h498.816c14.08 16.32 28.416 32.448 42.688 48.576 16.192 18.304 32.448 36.544 48.32 55.104 9.216 10.752 13.824 28.8 13.824 54.144v100.992z m-457.792-74.24V384.96H331.008v84.672h-83.84v85.504h83.84v83.84h85.504v-83.84h83.84V469.632h-83.84z m546.24 284.544a208.64 208.64 0 1 1-417.28 0 208.64 208.64 0 0 1 417.28 0z m-90.752-104.384H636.288v51.2h235.712v-51.2z m-235.712 84.096v51.2h235.712v-51.2H636.288z m235.712 84.096H636.288v51.2h235.712v-51.2z" p-id="10470"></path></svg>