<?xml version="1.0" standalone="no"?><!DOCTYPE svg PUBLIC "-//W3C//DTD SVG 1.1//EN" "http://www.w3.org/Graphics/SVG/1.1/DTD/svg11.dtd"><svg t="1732011631252" class="icon" viewBox="0 0 1024 1024" version="1.1" xmlns="http://www.w3.org/2000/svg" p-id="5178" width="128" height="128" xmlns:xlink="http://www.w3.org/1999/xlink"><path d="M296.27904 464.11264H98.2272v385.14688h198.05696l-0.00512-385.14688zM43.21792 911.58016h938.71104V970.24H43.21792v-58.65984zM332.87168 112.0256v737.23392h359.40864V112.14336l-359.40864-0.11776z m402.47808 777.35424l-692.13184 0.12288v-40.2432h18.41664l-0.12288-385.14688H43.21792V405.45792h252.93824V112.14336l-18.29376-0.12288V53.35552h469.29408v58.66496l-18.17088 0.12288v293.31456" fill="#2c2c2c" p-id="5179"></path><path d="M215.552 702.54592h44.02688v106.34752H215.552zM134.93248 702.54592h44.02688v106.34752h-44.02688zM215.552 511.67744h44.02688v146.71872H215.552zM134.93248 511.67744h44.02688v146.71872h-44.02688zM589.58848 702.54592h51.34336v106.34752h-51.34336zM589.58848 511.67744h51.34336v146.71872h-51.34336zM384.20992 702.54592H435.5584v106.34752H384.20992zM384.20992 511.67744H435.5584v146.71872H384.20992zM486.90688 702.54592h51.33824v106.34752H486.90688zM486.90688 511.67744h51.33824v146.71872H486.90688zM472.2688 163.24608h80.60928v88.05376h88.05888v84.39296h-88.05888v84.2752H472.2688v-84.2752H384.20992V251.29984H472.2688zM861.73696 665.2928a25.4976 25.4976 0 0 1-25.1904-26.69568V492.00128l-49.18272 49.11616a26.68032 26.68032 0 0 1-25.89696 7.17312 26.6752 26.6752 0 1 1-11.82208-44.89216l94.73024-94.72512a24.9344 24.9344 0 0 1 18.18112-7.81824 28.04736 28.04736 0 0 1 19.52768 7.81824l94.70976 94.73536a26.66496 26.66496 0 1 1-37.7088 37.7088l-50.70848-49.12128v146.60096a26.70592 26.70592 0 0 1-26.63936 26.69568zM887.50592 716.13952a25.53344 25.53344 0 0 1-25.5232 25.53856h-2.688a25.52832 25.52832 0 0 1-25.5232-25.53856 25.5232 25.5232 0 0 1 25.5232-25.5232h2.688a25.52832 25.52832 0 0 1 25.5232 25.5232zM887.50592 790.03648a25.53344 25.53344 0 0 1-25.5232 25.53856h-2.688a25.52832 25.52832 0 0 1-25.5232-25.53856 25.51808 25.51808 0 0 1 25.5232-25.5232h2.688a25.5232 25.5232 0 0 1 25.5232 25.5232zM887.50592 858.28608a25.5232 25.5232 0 0 1-25.5232 25.5232h-2.688a25.5232 25.5232 0 0 1-25.5232-25.5232 25.5232 25.5232 0 0 1 25.5232-25.52832h2.688a25.5232 25.5232 0 0 1 25.5232 25.52832z" fill="#2c2c2c" p-id="5180"></path></svg>