<?xml version="1.0" standalone="no"?><!DOCTYPE svg PUBLIC "-//W3C//DTD SVG 1.1//EN" "http://www.w3.org/Graphics/SVG/1.1/DTD/svg11.dtd"><svg t="1732012447402" class="icon" viewBox="0 0 1024 1024" version="1.1" xmlns="http://www.w3.org/2000/svg" p-id="14883" xmlns:xlink="http://www.w3.org/1999/xlink" width="128" height="128"><path d="M844 450c37.555 0 68 30.445 68 68v326c0 37.555-30.445 68-68 68H586c-37.555 0-68-30.445-68-68V518c0-37.555 30.445-68 68-68z m-4 72H590v318h250V522zM678 112c16.17 0 30.608 6.86 42.292 18.544 8.838 8.838 16.141 20.397 22.565 34.745A36.105 36.105 0 0 1 746 179.367v102.63c0 19.882-16.118 36-36 36-19.683 0-35.677-15.797-35.995-35.405l-0.005-0.595v-93.679l-0.117-0.214c-0.48-0.87-0.95-1.682-1.414-2.432l-0.276-0.443-0.406-0.631a39.6 39.6 0 0 0-0.196-0.296l-0.205-0.302H184v538h266.31c19.684 0 35.678 15.797 35.996 35.405l0.005 0.595c0 19.683-15.797 35.677-35.405 36H180c-37.18 0-67.39-29.839-67.99-66.875L112 726V180c0-37.18 29.839-67.39 66.875-67.99L180 112h498zM358 232.896c19.882 0 36 16.117 36 36v53.551h53.627l0.595 0.006c19.608 0.317 35.405 16.311 35.405 35.995 0 19.882-16.118 36-36 36l-53.628-0.001L394 448l-0.005 0.595C393.677 468.203 377.683 484 358 484c-19.882 0-36-16.118-36-36l-0.001-53.553h-53.626l-0.595-0.004c-19.608-0.318-35.405-16.312-35.405-35.995 0-19.882 16.118-36 36-36l53.626-0.001 0.001-53.551 0.005-0.596c0.318-19.607 16.312-35.404 35.995-35.404zM824.836 339l0.596 0.002c19.608 0.23 35.478 16.151 35.568 35.834 0.09 19.882-15.954 36.073-35.837 36.164l-220 1-0.595-0.002c-19.609-0.23-35.478-16.151-35.568-35.834-0.09-19.882 15.954-36.073 35.836-36.164l220-1z" fill="#222222" p-id="14884"></path></svg>