<?xml version="1.0" standalone="no"?><!DOCTYPE svg PUBLIC "-//W3C//DTD SVG 1.1//EN" "http://www.w3.org/Graphics/SVG/1.1/DTD/svg11.dtd"><svg t="1732000275133" class="icon" viewBox="0 0 1024 1024" version="1.1" xmlns="http://www.w3.org/2000/svg" p-id="12510" xmlns:xlink="http://www.w3.org/1999/xlink" width="128" height="128"><path d="M851.2 710.4c-32 3.2-48-44.8-48-76.8v-220.8c-3.2-92.8-89.6-230.4-208-262.4-6.4-48-38.4-86.4-80-86.4-38.4 0-73.6 35.2-80 86.4-124.8 25.6-208 166.4-211.2 259.2v224c0 32-28.8 76.8-51.2 76.8-32 0-60.8 28.8-60.8 60.8 0 35.2 28.8 60.8 60.8 60.8h195.2c9.6 70.4 67.2 128 140.8 128s134.4-54.4 140.8-128h195.2c35.2 0 60.8-28.8 60.8-60.8s-25.6-64-54.4-60.8zM512 92.8c19.2 0 38.4 19.2 44.8 48-28.8-3.2-60.8-3.2-89.6 0 6.4-28.8 25.6-48 44.8-48z m0 838.4c-57.6 0-102.4-41.6-108.8-96h220.8c-9.6 54.4-54.4 96-112 96z m339.2-128H172.8c-16 0-28.8-12.8-28.8-28.8s12.8-28.8 28.8-28.8c32 0 80-60.8 80-108.8v-217.6c0-86.4 80-227.2 198.4-246.4 35.2-6.4 73.6-6.4 105.6 0 121.6 16 208 160 208 249.6V640c0 44.8 28.8 99.2 80 108.8 16 0 28.8 12.8 28.8 28.8 6.4 12.8-6.4 25.6-22.4 25.6z" p-id="12511"></path></svg>