<?xml version="1.0" standalone="no"?><!DOCTYPE svg PUBLIC "-//W3C//DTD SVG 1.1//EN" "http://www.w3.org/Graphics/SVG/1.1/DTD/svg11.dtd"><svg t="1731999246505" class="icon" viewBox="0 0 1024 1024" version="1.1" xmlns="http://www.w3.org/2000/svg" p-id="1871" xmlns:xlink="http://www.w3.org/1999/xlink" width="128" height="128"><path d="M896 832H128V224a32 32 0 0 0-64 0v640a32 32 0 0 0 32 32H896a32 32 0 1 0 0-64zM247.04 640a32 32 0 0 0 20.928-7.808l179.712-155.84 174.592 155.52a32 32 0 0 0 44.672-2.048l250.496-269.248a32 32 0 0 0-46.912-43.648l-229.12 246.336-172.096-153.408a32.064 32.064 0 0 0-42.24-0.32L226.048 583.744A32 32 0 0 0 247.04 640z" p-id="1872"></path></svg>